<svg version="1.1" xmlns="http://www.w3.org/2000/svg" xmlns:xlink="http://www.w3.org/1999/xlink" width="36.21761" height="36.21761" viewBox="0,0,36.21761,36.21761"><g transform="translate(-221.89119,-161.8912)"><g data-paper-data="{&quot;isPaintingLayer&quot;:true}" fill-rule="nonzero" stroke="#000000" stroke-linejoin="miter" stroke-miterlimit="10" stroke-dasharray="" stroke-dashoffset="0" style="mix-blend-mode: normal"><g><path d="M240.00001,196.85881c-9.31086,0 -16.85881,-7.54795 -16.85881,-16.85881c0,-9.31086 7.54795,-16.8588 16.85881,-16.8588c9.31086,0 16.85881,7.54794 16.85881,16.8588c0,9.31086 -7.54795,16.8588 -16.85881,16.8588z" fill="#faffff" stroke-width="2.5" stroke-linecap="butt"/><path d="M254.75056,185.29001l-21.55861,0.43065l-7.52314,0.24743c0,0 0.85724,2.00052 2.1244,3.6863c1.08004,1.43685 2.6349,2.87131 3.82399,3.25552c0.62356,0.20147 2.08425,1.48294 5.03257,2.21338c0.93999,0.23288 3.31293,0.46728 5.61081,0.1943c1.23058,-0.14619 2.43963,-0.66002 3.39555,-0.90107c0.63416,-0.15992 3.40375,-1.82142 4.99385,-3.28314c0.70794,-0.65079 1.65372,-1.7026 2.35186,-2.73943c1.07732,-1.59998 1.78002,-3.1643 1.78002,-3.1643" fill="#6c6c6c" stroke-width="1" stroke-linecap="round"/><path d="M247.0153,185.09092c-1.35932,0 -9.03628,0.65609 -10.02062,-0.13241c-0.44282,-0.35472 1.13209,-0.68017 1.47155,-1.62365c0.34873,-0.96923 -0.26848,-4.32346 0.24843,-5.58563c0.47498,-1.15975 2.10063,-0.27224 2.10063,-0.27224c0,0 1.84143,-0.8503 2.92344,-0.47002c0.66594,0.23405 0.76401,1.2264 0.80031,1.63576c0.08074,0.91063 0.4889,3.07615 1.30784,4.55371c0.27644,0.49877 1.20142,0.67737 1.48684,0.98227c0.42383,0.45275 0.11688,0.91222 -0.31843,0.91222z" fill="#ff64d8" stroke-width="0.5" stroke-linecap="butt"/><path d="M240.24922,177.98654c0.2569,0 0.46517,1.08549 0.46517,2.42451c0,1.33902 -0.20827,2.42451 -0.46517,2.42451c-0.2569,0 -0.46516,-1.08549 -0.46516,-2.42451c0,-1.33902 0.20826,-2.42451 0.46516,-2.42451z" fill="#faffff" stroke-width="0.5" stroke-linecap="butt"/><g stroke-width="0.5" stroke-linecap="round"><path d="M247.57397,171.21241c0,0 -8.99619,1.56824 -8.65455,0.20168c0.3993,-1.5972 1.3472,-5.38881 1.78175,-7.12698c0.07606,-0.30426 2.86489,0.45923 5.15023,1.27845c1.87137,0.67084 3.2503,1.87189 3.2503,1.87189" fill="#ae9988"/><path d="M247.57913,171.33323l1.88216,-5.01281" fill="#fbddc5"/></g><path d="M243.61839,181.14533c0.25247,-0.04754 0.55491,0.4332 0.67552,1.07376c0.12061,0.64056 0.01371,1.19836 -0.23875,1.2459c-0.25247,0.04754 -0.55491,-0.4332 -0.67552,-1.07376c-0.12061,-0.64056 -0.01371,-1.19836 0.23875,-1.2459z" fill="#faffff" stroke-width="0.5" stroke-linecap="butt"/><path d="M247.6373,171.3185c0.01176,0.00537 -1.18715,5.36089 -1.20507,5.37289c-0.65016,0.43548 -2.77493,0.3826 -3.47411,0.47005c-0.17119,0.02141 -1.06171,0.11359 -2.04291,0.08863c-2.64891,-0.06737 -7.01589,-0.26519 -7.01589,-1.53768c0,-0.81575 0.08089,-3.88153 1.36082,-4.30176c1.07088,-0.35159 2.38408,0.45544 3.70724,0.35826c1.23404,-0.09064 2.57366,0.01713 3.73839,-0.10489c2.51248,-0.26322 4.57358,-0.50879 4.93152,-0.34549z" fill="#8f2600" stroke-width="0.5" stroke-linecap="butt"/></g></g></g></svg>